<?xml version="1.0" encoding="UTF-8"?>
<svg id="Layer_6" data-name="Layer 6" xmlns="http://www.w3.org/2000/svg" xmlns:xlink="http://www.w3.org/1999/xlink" viewBox="0 0 674.9 858.97">
  <defs>
<style>
  .cls-1 {
    fill: none;
  }

  .cls-2 {
    clip-path: url(#clippath);
  }

  .cls-3 {
    clip-path: url(#clippath-1);
  }

  .cls-4 {
    fill: #70EE9C; /* Top-Inner */
    stroke: #008148; /* Top-Outer */
  }

  .cls-4, .cls-5 {
    stroke-miterlimit: 10;
    stroke-width: 30px;
  }

  .cls-5 {
    fill: #ee312c; /* Bottom-Inner */
    stroke: #a31724; /* Bottom-Outer */
  }
</style>
    <clipPath id="clippath">
      <rect class="cls-1" y="199.12" width="357.87" height="659.85"/>
    </clipPath>
    <clipPath id="clippath-1">
      <rect class="cls-1" x="357.41" y="191.36" width="277.06" height="636.08"/>
    </clipPath>
  </defs>
  <g class="cls-2">
    <path class="cls-5" d="M336.02,254.5h-37.15c-69.29,0-125.44,53.18-125.44,118.77v252.86c0,65.6,56.16,118.79,125.44,118.79h37.15c69.29,0,125.46-53.18,125.46-118.79v-252.86c0-65.59-56.17-118.77-125.46-118.77Zm44.15,357.4c0,31.77-27.21,57.54-60.77,57.54h-6.72c-33.56,0-60.77-25.77-60.77-57.54v-222.93c0-31.77,27.21-57.53,60.77-57.53h6.72c33.56,0,60.77,25.75,60.77,57.53v222.93Z"/>
  </g>
  <path class="cls-4" d="M336.1,15h-37.27c-69.51,0-125.85,53.18-125.85,118.77v252.86c0,65.6,56.34,118.79,125.85,118.79h37.27c69.51,0,125.86-53.18,125.86-118.79V133.77c0-65.59-56.35-118.77-125.86-118.77Zm44.29,357.4c0,31.77-27.3,57.54-60.97,57.54h-6.74c-33.67,0-60.97-25.77-60.97-57.54V149.46c0-31.77,27.3-57.53,60.97-57.53h6.74c33.67,0,60.97,25.75,60.97,57.53v222.93Z"/>
  <g class="cls-3">
    <path class="cls-5" d="M335.9,254.53h-37.26c-69.49,0-125.81,53.18-125.81,118.77v252.86c0,65.6,56.32,118.79,125.81,118.79h37.26c69.49,0,125.83-53.18,125.83-118.79v-252.86c0-65.59-56.33-118.77-125.83-118.77Zm44.27,357.4c0,31.77-27.29,57.54-60.95,57.54h-6.74c-33.66,0-60.95-25.77-60.95-57.54v-222.93c0-31.77,27.29-57.53,60.95-57.53h6.74c33.66,0,60.95,25.75,60.95,57.53v222.93Z"/>
  </g>
</svg>